<svg width="24" height="24" viewBox="0 0 24 24" fill="none" xmlns="http://www.w3.org/2000/svg">
	<path d="M19.9402 9.37665C19.3862 8.07558 18.5213 6.93039 17.4214 6.04162C16.3215 5.15284 15.0202 4.54765 13.6318 4.27918L14.886 2.27251L13.614 1.47751L11.9591 4.12538C10.2734 4.1332 8.62685 4.63472 7.223 5.56797C5.81915 6.50123 4.71948 7.82532 4.05985 9.37665C3.17628 9.39344 2.33457 9.75623 1.71565 10.387C1.09673 11.0178 0.75 11.8663 0.75 12.75C0.75 13.6337 1.09673 14.4822 1.71565 15.113C2.33457 15.7438 3.17628 16.1066 4.05985 16.1234C4.72229 17.6811 5.82828 19.0095 7.24012 19.9433C8.65196 20.8771 10.3073 21.375 12 21.375C13.6927 21.375 15.348 20.8771 16.7599 19.9433C18.1717 19.0095 19.2777 17.6811 19.9402 16.1234C20.8237 16.1066 21.6654 15.7438 22.2844 15.113C22.9033 14.4822 23.25 13.6337 23.25 12.75C23.25 11.8663 22.9033 11.0178 22.2844 10.387C21.6654 9.75623 20.8237 9.39344 19.9402 9.37665ZM21.2129 14.063C20.8699 14.4138 20.4023 14.6153 19.9117 14.6236L18.9402 14.6421L18.5599 15.5362C18.0127 16.8232 17.099 17.9209 15.9326 18.6924C14.7662 19.464 13.3985 19.8754 12 19.8754C10.6015 19.8754 9.23389 19.464 8.06747 18.6924C6.90104 17.9209 5.98735 16.8232 5.44017 15.5362L5.05983 14.6421L4.08835 14.6236C3.5975 14.6145 3.12986 14.413 2.78598 14.0626C2.4421 13.7123 2.24944 13.2409 2.24944 12.75C2.24944 12.2591 2.4421 11.7877 2.78598 11.4374C3.12986 11.087 3.5975 10.8856 4.08835 10.8764L5.05983 10.8579L5.44017 9.96381C5.98737 8.67679 6.90107 7.57918 8.06749 6.80763C9.23391 6.03609 10.6015 5.6247 12 5.6247C13.3985 5.6247 14.7661 6.03609 15.9326 6.80763C17.099 7.57918 18.0127 8.67679 18.5599 9.96381L18.9402 10.8579L19.9117 10.8764C20.2778 10.8833 20.6338 10.9973 20.9358 11.2044C21.2378 11.4114 21.4725 11.7024 21.611 12.0414C21.7494 12.3804 21.7855 12.7526 21.7147 13.1118C21.644 13.4711 21.4695 13.8018 21.2129 14.063Z" fill="#DEE2E6"/>
	<path d="M7.875 10.875H9.75V12.75H7.875V10.875ZM14.25 10.875H16.125V12.75H14.25V10.875ZM12 18C12.4925 18 12.9801 17.903 13.4351 17.7145C13.89 17.5261 14.3034 17.2499 14.6517 16.9017C14.9999 16.5534 15.2761 16.14 15.4645 15.6851C15.653 15.2301 15.75 14.7425 15.75 14.25H8.25C8.25 14.7425 8.347 15.2301 8.53545 15.6851C8.72391 16.14 9.00013 16.5534 9.34835 16.9017C10.0516 17.6049 11.0054 18 12 18Z" fill="#DEE2E6"/>
	</svg>
	