<svg width="24" height="24" viewBox="0 0 24 24" fill="none" xmlns="http://www.w3.org/2000/svg">
	<path d="M16.5 6.9375C16.2969 6.9375 16.1211 6.86328 15.9727 6.71484C15.8242 6.56641 15.75 6.39062 15.75 6.1875C15.75 5.78906 15.8242 5.40625 15.9727 5.03906C16.1211 4.67188 16.3398 4.34766 16.6289 4.06641L17.5547 3.12891C17.8516 2.83203 18 2.47656 18 2.0625C18 1.85938 18.0742 1.68359 18.2227 1.53516C18.3711 1.38672 18.5469 1.3125 18.75 1.3125C18.9531 1.3125 19.1289 1.38672 19.2773 1.53516C19.4258 1.68359 19.5 1.85938 19.5 2.0625C19.5 2.46094 19.4258 2.84375 19.2773 3.21094C19.1289 3.57812 18.9102 3.90234 18.6211 4.18359L17.6953 5.12109C17.3984 5.41797 17.25 5.77344 17.25 6.1875C17.25 6.39062 17.1758 6.56641 17.0273 6.71484C16.8789 6.86328 16.7031 6.9375 16.5 6.9375ZM12 6.9375C11.7969 6.9375 11.6211 6.86328 11.4727 6.71484C11.3242 6.56641 11.25 6.39062 11.25 6.1875C11.25 5.78906 11.3242 5.40625 11.4727 5.03906C11.6211 4.67188 11.8398 4.34766 12.1289 4.06641L13.0547 3.12891C13.3516 2.83203 13.5 2.47656 13.5 2.0625C13.5 1.85938 13.5742 1.68359 13.7227 1.53516C13.8711 1.38672 14.0469 1.3125 14.25 1.3125C14.4531 1.3125 14.6289 1.38672 14.7773 1.53516C14.9258 1.68359 15 1.85938 15 2.0625C15 2.46094 14.9258 2.84375 14.7773 3.21094C14.6289 3.57812 14.4102 3.90234 14.1211 4.18359L13.1953 5.12109C12.8984 5.41797 12.75 5.77344 12.75 6.1875C12.75 6.39062 12.6758 6.56641 12.5273 6.71484C12.3789 6.86328 12.2031 6.9375 12 6.9375ZM21.75 9C22.0625 9 22.3555 9.05859 22.6289 9.17578C22.9023 9.29297 23.1406 9.45312 23.3438 9.65625C23.5469 9.85938 23.707 10.0977 23.8242 10.3711C23.9414 10.6445 24 10.9375 24 11.25V15.75C24 16.0625 23.9414 16.3555 23.8242 16.6289C23.707 16.9023 23.5469 17.1406 23.3438 17.3438C23.1406 17.5469 22.9023 17.707 22.6289 17.8242C22.3555 17.9414 22.0625 18 21.75 18H21.082C21.0664 18.0547 21.0547 18.1055 21.0469 18.1523C21.0391 18.1992 21.0234 18.2461 21 18.293V18.75C21 19.2656 20.9023 19.75 20.707 20.2031C20.5117 20.6562 20.2422 21.0547 19.8984 21.3984C19.5547 21.7422 19.1562 22.0117 18.7031 22.207C18.25 22.4023 17.7656 22.5 17.25 22.5H12.75C12.1406 22.5 11.5781 22.3633 11.0625 22.0898C10.5469 21.8164 10.1172 21.4531 9.77344 21H3.91406C3.39844 21 2.91406 20.9023 2.46094 20.707C2.00781 20.5117 1.60938 20.2461 1.26562 19.9102C0.921875 19.5742 0.652344 19.1758 0.457031 18.7148C0.261719 18.2539 0.164062 17.7656 0.164062 17.25V16.5H3.16406C3.16406 15.8828 3.28125 15.3008 3.51562 14.7539C3.75 14.207 4.07422 13.7305 4.48828 13.3242C4.90234 12.918 5.37891 12.5938 5.91797 12.3516C6.45703 12.1094 7.03906 11.9922 7.66406 12C7.89844 12 8.125 12.0195 8.34375 12.0586C8.5625 12.0977 8.78125 12.1523 9 12.2227V7.5H21V9H21.75ZM7.66406 13.5C7.25 13.5 6.86328 13.5781 6.50391 13.7344C6.14453 13.8906 5.82422 14.1055 5.54297 14.3789C5.26172 14.6523 5.04688 14.9688 4.89844 15.3281C4.75 15.6875 4.67188 16.0781 4.66406 16.5H9V13.8281C8.79688 13.7266 8.58594 13.6484 8.36719 13.5938C8.14844 13.5391 7.91406 13.5078 7.66406 13.5ZM3.91406 19.5H9.08203C9.02734 19.2734 9 19.0234 9 18.75V18H1.79297C1.87109 18.2188 1.98047 18.418 2.12109 18.5977C2.26172 18.7773 2.42188 18.9375 2.60156 19.0781C2.78125 19.2188 2.98438 19.3203 3.21094 19.3828C3.4375 19.4453 3.67188 19.4844 3.91406 19.5ZM9.33984 20.2852V20.2969L9.35156 20.3203V20.3086L9.33984 20.2852ZM19.5 18.75V9H10.5V18.75C10.5 19.0625 10.5586 19.3555 10.6758 19.6289C10.793 19.9023 10.9531 20.1406 11.1562 20.3438C11.3594 20.5469 11.5977 20.707 11.8711 20.8242C12.1445 20.9414 12.4375 21 12.75 21H17.25C17.5625 21 17.8555 20.9414 18.1289 20.8242C18.4023 20.707 18.6406 20.5469 18.8438 20.3438C19.0469 20.1406 19.207 19.9023 19.3242 19.6289C19.4414 19.3555 19.5 19.0625 19.5 18.75ZM22.5 15.75V11.25C22.5 11.0469 22.4258 10.8711 22.2773 10.7227C22.1289 10.5742 21.9531 10.5 21.75 10.5H21V16.5H21.75C21.9531 16.5 22.1289 16.4258 22.2773 16.2773C22.4258 16.1289 22.5 15.9531 22.5 15.75Z" fill="#DEE2E6"/>
	</svg>
	