<svg width="24" height="24" viewBox="0 0 24 24" fill="none" xmlns="http://www.w3.org/2000/svg">
	<g clip-path="url(#clip0_1_139)">
	<path d="M23.6602 17.0977C23.8867 17.5977 24 18.1172 24 18.6562V19.5C24 20.0938 23.8398 20.6367 23.5195 21.1289C23.1992 21.6211 22.7695 21.9883 22.2305 22.2305C21.9883 22.7695 21.6211 23.1992 21.1289 23.5195C20.6367 23.8398 20.0938 24 19.5 24C18.9609 24 18.4609 23.8672 18 23.6016C17.5391 23.3359 17.1719 22.9688 16.8984 22.5H8.60156C8.32812 22.9688 7.96094 23.3359 7.5 23.6016C7.03906 23.8672 6.53906 24 6 24C5.46094 24 4.96094 23.8672 4.5 23.6016C4.03906 23.3359 3.67188 22.9688 3.39844 22.5H1.5C1.28906 22.5 1.09375 22.4609 0.914062 22.3828C0.734375 22.3047 0.578125 22.1992 0.445312 22.0664C0.3125 21.9336 0.203125 21.7734 0.117188 21.5859C0.03125 21.3984 -0.0078125 21.2031 1.16415e-10 21V18C1.16415e-10 17.375 0.117188 16.7891 0.351562 16.2422C0.585938 15.6953 0.90625 15.2188 1.3125 14.8125C1.71875 14.4062 2.19531 14.0859 2.74219 13.8516C3.28906 13.6172 3.875 13.5 4.5 13.5H4.93359L8.77734 9.65625C8.98828 9.44531 9.23047 9.28516 9.50391 9.17578C9.77734 9.06641 10.0664 9.00781 10.3711 9H21V10.5H20.6602L23.6602 17.0977ZM15 10.5V13.5H20.3789L19.2188 10.9336C19.1562 10.8008 19.0625 10.6953 18.9375 10.6172C18.8125 10.5391 18.6758 10.5 18.5273 10.5H15ZM10.3711 10.5C10.168 10.5 9.99219 10.5742 9.84375 10.7227L7.06641 13.5H13.5V10.5H10.3711ZM6 22.5C6.21094 22.5 6.40625 22.4609 6.58594 22.3828C6.76562 22.3047 6.92188 22.1992 7.05469 22.0664C7.1875 21.9336 7.29687 21.7734 7.38281 21.5859C7.46875 21.3984 7.50781 21.2031 7.5 21C7.5 20.7891 7.46094 20.5938 7.38281 20.4141C7.30469 20.2344 7.19922 20.0781 7.06641 19.9453C6.93359 19.8125 6.77344 19.7031 6.58594 19.6172C6.39844 19.5312 6.20312 19.4922 6 19.5C5.78906 19.5 5.59375 19.5391 5.41406 19.6172C5.23438 19.6953 5.07812 19.8008 4.94531 19.9336C4.8125 20.0664 4.70312 20.2266 4.61719 20.4141C4.53125 20.6016 4.49219 20.7969 4.5 21C4.5 21.2109 4.53906 21.4062 4.61719 21.5859C4.69531 21.7656 4.80078 21.9219 4.93359 22.0547C5.06641 22.1875 5.22656 22.2969 5.41406 22.3828C5.60156 22.4688 5.79687 22.5078 6 22.5ZM6 18C6.41406 18 6.80078 18.0781 7.16016 18.2344C7.51953 18.3906 7.83984 18.6055 8.12109 18.8789C8.40234 19.1523 8.61719 19.4688 8.76562 19.8281C8.91406 20.1875 8.99219 20.5781 9 21H13.5V15H4.5C4.08594 15 3.69922 15.0781 3.33984 15.2344C2.98047 15.3906 2.66016 15.6055 2.37891 15.8789C2.09766 16.1523 1.88281 16.4688 1.73438 16.8281C1.58594 17.1875 1.50781 17.5781 1.5 18V21H3C3 20.5859 3.07813 20.1992 3.23438 19.8398C3.39062 19.4805 3.60547 19.1602 3.87891 18.8789C4.15234 18.5977 4.46875 18.3828 4.82812 18.2344C5.1875 18.0859 5.57812 18.0078 6 18ZM19.5 22.5C19.7109 22.5 19.9062 22.4609 20.0859 22.3828C20.2656 22.3047 20.4219 22.1992 20.5547 22.0664C20.6875 21.9336 20.7969 21.7734 20.8828 21.5859C20.9688 21.3984 21.0078 21.2031 21 21C21 20.7891 20.9609 20.5938 20.8828 20.4141C20.8047 20.2344 20.6992 20.0781 20.5664 19.9453C20.4336 19.8125 20.2734 19.7031 20.0859 19.6172C19.8984 19.5312 19.7031 19.4922 19.5 19.5C19.2891 19.5 19.0938 19.5391 18.9141 19.6172C18.7344 19.6953 18.5781 19.8008 18.4453 19.9336C18.3125 20.0664 18.2031 20.2266 18.1172 20.4141C18.0312 20.6016 17.9922 20.7969 18 21C18 21.2109 18.0391 21.4062 18.1172 21.5859C18.1953 21.7656 18.3008 21.9219 18.4336 22.0547C18.5664 22.1875 18.7266 22.2969 18.9141 22.3828C19.1016 22.4688 19.2969 22.5078 19.5 22.5ZM22.5 18.6562C22.5 18.3359 22.4336 18.0234 22.3008 17.7188L21.0586 15H15V21H16.5C16.5 20.5859 16.5781 20.1992 16.7344 19.8398C16.8906 19.4805 17.1055 19.1602 17.3789 18.8789C17.6523 18.5977 17.9688 18.3828 18.3281 18.2344C18.6875 18.0859 19.0781 18.0078 19.5 18C19.8281 18 20.1445 18.0508 20.4492 18.1523C20.7539 18.2539 21.0312 18.3984 21.2812 18.5859C21.5312 18.7734 21.75 18.9961 21.9375 19.2539C22.125 19.5117 22.2695 19.8008 22.3711 20.1211C22.457 19.9102 22.5 19.7031 22.5 19.5V18.6562Z" fill="#DEE2E6"/>
	</g>
	<defs>
	<clipPath id="clip0_1_139">
	<rect width="24" height="24" fill="white"/>
	</clipPath>
	</defs>
	</svg>
	