<svg width="24" height="24" viewBox="0 0 24 24" fill="none" xmlns="http://www.w3.org/2000/svg">
	<g clip-path="url(#clip0_1_162)">
	<path d="M10.1602 17.1211C10.668 17.3789 11.1289 17.6953 11.543 18.0703C11.957 18.4453 12.3086 18.8672 12.5977 19.3359C12.8867 19.8047 13.1094 20.3047 13.2656 20.8359C13.4219 21.3672 13.5 21.9219 13.5 22.5H12C12 21.8828 11.8828 21.3008 11.6484 20.7539C11.4141 20.207 11.0938 19.7305 10.6875 19.3242C10.2812 18.918 9.80078 18.5938 9.24609 18.3516C8.69141 18.1094 8.10938 17.9922 7.5 18C6.875 18 6.29297 18.1172 5.75391 18.3516C5.21484 18.5859 4.73828 18.9062 4.32422 19.3125C3.91016 19.7188 3.58594 20.1992 3.35156 20.7539C3.11719 21.3086 3 21.8906 3 22.5H1.5C1.5 21.9297 1.57812 21.3789 1.73438 20.8477C1.89062 20.3164 2.11328 19.8125 2.40234 19.3359C2.69141 18.8594 3.04297 18.4375 3.45703 18.0703C3.87109 17.7031 4.33203 17.3867 4.83984 17.1211C4.26172 16.6992 3.8125 16.1719 3.49219 15.5391C3.17188 14.9062 3.00781 14.2266 3 13.5C3 12.8828 3.11719 12.3008 3.35156 11.7539C3.58594 11.207 3.90625 10.7305 4.3125 10.3242C4.71875 9.91797 5.19531 9.59375 5.74219 9.35156C6.28906 9.10938 6.875 8.99219 7.5 9C8.21875 9 8.89453 9.16016 9.52734 9.48047C10.1602 9.80078 10.6914 10.2539 11.1211 10.8398C11.418 10.2539 11.7969 9.73047 12.2578 9.26953C12.7188 8.80859 13.2461 8.42969 13.8398 8.13281C13.2617 7.70312 12.8125 7.17188 12.4922 6.53906C12.1719 5.90625 12.0078 5.22656 12 4.5C12 3.88281 12.1172 3.30078 12.3516 2.75391C12.5859 2.20703 12.9062 1.73047 13.3125 1.32422C13.7188 0.917969 14.1953 0.59375 14.7422 0.351562C15.2891 0.109375 15.875 -0.0078125 16.5 0C17.1172 0 17.6992 0.117188 18.2461 0.351562C18.793 0.585938 19.2695 0.90625 19.6758 1.3125C20.082 1.71875 20.4062 2.19922 20.6484 2.75391C20.8906 3.30859 21.0078 3.89062 21 4.5C21 5.23438 20.832 5.92578 20.4961 6.57422C20.1602 7.22266 19.6914 7.75781 19.0898 8.17969C19.457 8.375 19.8086 8.60547 20.1445 8.87109C20.4805 9.13672 20.7852 9.4375 21.0586 9.77344C21.332 10.1094 21.5781 10.4609 21.7969 10.8281C22.0156 11.1953 22.1836 11.5859 22.3008 12H20.7305C20.5586 11.5938 20.3281 11.2109 20.0391 10.8516C19.75 10.4922 19.418 10.1719 19.043 9.89062C18.668 9.60938 18.2656 9.39453 17.8359 9.24609C17.4062 9.09766 16.9609 9.01953 16.5 9.01172C15.875 9.01172 15.293 9.12891 14.7539 9.36328C14.2148 9.59766 13.7383 9.91797 13.3242 10.3242C12.9102 10.7305 12.5859 11.207 12.3516 11.7539C12.1172 12.3008 12 12.8828 12 13.5C12 14.2188 11.8398 14.8945 11.5195 15.5273C11.1992 16.1602 10.7461 16.6914 10.1602 17.1211ZM16.5 1.5C16.0859 1.5 15.6992 1.57812 15.3398 1.73438C14.9805 1.89062 14.6602 2.10547 14.3789 2.37891C14.0977 2.65234 13.8828 2.96875 13.7344 3.32812C13.5859 3.6875 13.5078 4.07812 13.5 4.5C13.5 4.91406 13.5781 5.30078 13.7344 5.66016C13.8906 6.01953 14.1055 6.33984 14.3789 6.62109C14.6523 6.90234 14.9688 7.11719 15.3281 7.26562C15.6875 7.41406 16.0781 7.49219 16.5 7.5C16.9141 7.5 17.3008 7.42188 17.6602 7.26562C18.0195 7.10938 18.3398 6.89453 18.6211 6.62109C18.9023 6.34766 19.1172 6.03125 19.2656 5.67188C19.4141 5.3125 19.4922 4.92188 19.5 4.5C19.5 4.08594 19.4219 3.69922 19.2656 3.33984C19.1094 2.98047 18.8945 2.66016 18.6211 2.37891C18.3477 2.09766 18.0312 1.88281 17.6719 1.73438C17.3125 1.58594 16.9219 1.50781 16.5 1.5ZM4.5 13.5C4.5 13.9141 4.57812 14.3008 4.73438 14.6602C4.89062 15.0195 5.10547 15.3398 5.37891 15.6211C5.65234 15.9023 5.96875 16.1172 6.32812 16.2656C6.6875 16.4141 7.07812 16.4922 7.5 16.5C7.91406 16.5 8.30078 16.4219 8.66016 16.2656C9.01953 16.1094 9.33984 15.8945 9.62109 15.6211C9.90234 15.3477 10.1172 15.0312 10.2656 14.6719C10.4141 14.3125 10.4922 13.9219 10.5 13.5C10.5 13.0859 10.4219 12.6992 10.2656 12.3398C10.1094 11.9805 9.89453 11.6602 9.62109 11.3789C9.34766 11.0977 9.03125 10.8828 8.67188 10.7344C8.3125 10.5859 7.92188 10.5078 7.5 10.5C7.08594 10.5 6.69922 10.5781 6.33984 10.7344C5.98047 10.8906 5.66016 11.1055 5.37891 11.3789C5.09766 11.6523 4.88281 11.9688 4.73438 12.3281C4.58594 12.6875 4.50781 13.0781 4.5 13.5ZM24 18V24H16.5V18H17.25V16.5C17.25 16.0859 17.3281 15.6992 17.4844 15.3398C17.6406 14.9805 17.8555 14.6602 18.1289 14.3789C18.4023 14.0977 18.7188 13.8828 19.0781 13.7344C19.4375 13.5859 19.8281 13.5078 20.25 13.5C20.6641 13.5 21.0508 13.5781 21.4102 13.7344C21.7695 13.8906 22.0898 14.1055 22.3711 14.3789C22.6523 14.6523 22.8672 14.9688 23.0156 15.3281C23.1641 15.6875 23.2422 16.0781 23.25 16.5V18H24ZM18.75 18H21.75V16.5C21.75 16.2891 21.7109 16.0938 21.6328 15.9141C21.5547 15.7344 21.4492 15.5781 21.3164 15.4453C21.1836 15.3125 21.0234 15.2031 20.8359 15.1172C20.6484 15.0312 20.4531 14.9922 20.25 15C20.0391 15 19.8438 15.0391 19.6641 15.1172C19.4844 15.1953 19.3281 15.3008 19.1953 15.4336C19.0625 15.5664 18.9531 15.7266 18.8672 15.9141C18.7812 16.1016 18.7422 16.2969 18.75 16.5V18ZM22.5 19.5H18V22.5H22.5V19.5Z" fill="#DEE2E6"/>
	</g>
	<defs>
	<clipPath id="clip0_1_162">
	<rect width="24" height="24" fill="white"/>
	</clipPath>
	</defs>
	</svg>
	