<svg width="24" height="24" viewBox="0 0 24 24" fill="none" xmlns="http://www.w3.org/2000/svg">
	<path d="M16.2492 14.2641C15.0822 13.2267 13.5752 12.6537 12.0138 12.6537C10.4525 12.6537 8.94539 13.2267 7.77843 14.2641C7.67982 14.3494 7.59915 14.4535 7.5411 14.5702C7.48305 14.687 7.44877 14.8141 7.44027 14.9442C7.43176 15.0744 7.44919 15.2049 7.49155 15.3282C7.53391 15.4515 7.60035 15.5652 7.68701 15.6626C7.77367 15.7601 7.87883 15.8393 7.99637 15.8958C8.11392 15.9522 8.24151 15.9848 8.37173 15.9915C8.50195 15.9982 8.63222 15.979 8.75496 15.935C8.8777 15.891 8.99046 15.823 9.08671 15.735C9.89325 15.0182 10.9348 14.6222 12.0138 14.6222C13.0929 14.6222 14.1344 15.0182 14.9409 15.735C15.1361 15.9085 15.3922 15.9973 15.6529 15.982C15.9136 15.9667 16.1575 15.8484 16.331 15.6532C16.5045 15.458 16.5933 15.2019 16.578 14.9412C16.5627 14.6805 16.4444 14.4366 16.2492 14.2631V14.2641Z" fill="#DEE2E6"/>
	<path d="M12.0131 8.61094C9.37019 8.6073 6.82537 9.61181 4.8975 11.4197C4.79989 11.5071 4.72072 11.6132 4.66463 11.7316C4.60855 11.85 4.57667 11.9785 4.57088 12.1094C4.56508 12.2403 4.58549 12.3711 4.63089 12.494C4.6763 12.6169 4.74579 12.7295 4.8353 12.8253C4.9248 12.921 5.03252 12.9979 5.15213 13.0514C5.27173 13.1049 5.40083 13.134 5.53184 13.137C5.66285 13.14 5.79314 13.1168 5.91506 13.0688C6.03699 13.0208 6.1481 12.9489 6.24187 12.8573C7.80725 11.3938 9.87017 10.5797 12.0131 10.5797C14.1561 10.5797 16.219 11.3938 17.7844 12.8573C17.8781 12.9489 17.9893 13.0208 18.1112 13.0688C18.2331 13.1168 18.3634 13.14 18.4944 13.137C18.6254 13.134 18.7545 13.1049 18.8741 13.0514C18.9937 12.9979 19.1014 12.921 19.1909 12.8253C19.2805 12.7295 19.3499 12.6169 19.3954 12.494C19.4408 12.3711 19.4612 12.2403 19.4554 12.1094C19.4496 11.9785 19.4177 11.85 19.3616 11.7316C19.3055 11.6132 19.2264 11.5071 19.1287 11.4197C17.2009 9.61181 14.6561 8.6073 12.0131 8.61094Z" fill="#DEE2E6"/>
	<path d="M21.6562 8.24344C19.0023 5.87548 15.5699 4.5668 12.0131 4.5668C8.45635 4.5668 5.02392 5.87548 2.36998 8.24344C2.27024 8.32864 2.18853 8.43291 2.12966 8.55014C2.07079 8.66737 2.03594 8.79518 2.02717 8.92606C2.01839 9.05695 2.03587 9.18826 2.07856 9.3123C2.12125 9.43634 2.18831 9.55059 2.27578 9.64834C2.36326 9.74609 2.46939 9.82538 2.58794 9.88153C2.70649 9.93769 2.83507 9.96958 2.96612 9.97534C3.09718 9.9811 3.22806 9.96061 3.35108 9.91507C3.4741 9.86953 3.58677 9.79986 3.68248 9.71016C5.97544 7.66518 8.94049 6.53506 12.0129 6.53506C15.0853 6.53506 18.0503 7.66518 20.3433 9.71016C20.5379 9.8842 20.7937 9.97381 21.0544 9.95926C21.3151 9.94471 21.5593 9.8272 21.7333 9.63258C21.9074 9.43795 21.997 9.18216 21.9824 8.92147C21.9679 8.66078 21.8504 8.41655 21.6558 8.2425L21.6562 8.24344Z" fill="#DEE2E6"/>
	<path d="M12.0131 19.9411C12.8415 19.9411 13.5131 19.2695 13.5131 18.4411C13.5131 17.6127 12.8415 16.9411 12.0131 16.9411C11.1847 16.9411 10.5131 17.6127 10.5131 18.4411C10.5131 19.2695 11.1847 19.9411 12.0131 19.9411Z" fill="#DEE2E6"/>
	</svg>
	